<svg xmlns="http://www.w3.org/2000/svg" x="0px" y="0px"
width="1.5rem" height="1.5rem"
viewBox="0 0 172 172"
style=" fill:#fff;"><g fill="nonea" fill-rule="nonzero" stroke="none" stroke-width="1" stroke-linecap="butt" stroke-linejoin="miter" stroke-miterlimit="10" stroke-dasharray="" stroke-dashoffset="0" font-family="none" font-weight="none" font-size="none" text-anchor="none" style="mix-blend-mode: normal"><path d="M0,172v-172h172v172z" fill="none"></path><g fill="#ffffff"><path d="M85.91601,14.25635c-2.96578,0.04633 -5.33356,2.48615 -5.29101,5.45199v10.75c-0.02741,1.93842 0.99102,3.74144 2.66532,4.71865c1.6743,0.97721 3.74507,0.97721 5.41937,0c1.6743,-0.97721 2.69273,-2.78023 2.66532,-4.71865v-10.75c0.02085,-1.45347 -0.54782,-2.85342 -1.57634,-3.88062c-1.02852,-1.0272 -2.4292,-1.59408 -3.88264,-1.57136zM39.06673,33.69873c-2.18814,0.00053 -4.1576,1.32735 -4.98006,3.35504c-0.82245,2.0277 -0.33375,4.35156 1.23575,5.87624l7.60059,7.60058c2.10078,2.10078 5.50681,2.10078 7.60758,0c2.10078,-2.10078 2.10078,-5.50681 0,-7.60758l-7.60058,-7.60059c-1.01508,-1.04157 -2.40889,-1.62737 -3.86328,-1.6237zM132.7653,33.69873c-1.39592,0.04068 -2.72121,0.62301 -3.69531,1.6237l-7.60058,7.60059c-2.10078,2.10078 -2.10078,5.50681 0,7.60758c2.10078,2.10078 5.50681,2.10078 7.60758,0l7.60059,-7.60058c1.59345,-1.54573 2.0728,-3.91199 1.20653,-5.956c-0.86626,-2.04401 -2.89992,-3.34525 -5.11881,-3.27528zM86,46.58333c-21.76922,0 -39.41667,17.64744 -39.41667,39.41667c0,21.76922 17.64744,39.41667 39.41667,39.41667c21.76922,0 39.41667,-17.64744 39.41667,-39.41667c0,-21.76922 -17.64744,-39.41667 -39.41667,-39.41667zM19.70833,80.625c-1.93842,-0.02741 -3.74144,0.99102 -4.71865,2.66532c-0.97721,1.6743 -0.97721,3.74507 0,5.41937c0.97721,1.6743 2.78023,2.69273 4.71865,2.66532h10.75c1.93842,0.02741 3.74144,-0.99102 4.71865,-2.66532c0.97721,-1.6743 0.97721,-3.74507 0,-5.41937c-0.97721,-1.6743 -2.78023,-2.69273 -4.71865,-2.66532zM141.54167,80.625c-1.93842,-0.02741 -3.74144,0.99102 -4.71865,2.66532c-0.97721,1.6743 -0.97721,3.74507 0,5.41937c0.97721,1.6743 2.78023,2.69273 4.71865,2.66532h10.75c1.93842,0.02741 3.74144,-0.99102 4.71865,-2.66532c0.97721,-1.6743 0.97721,-3.74507 0,-5.41937c-0.97721,-1.6743 -2.78023,-2.69273 -4.71865,-2.66532zM46.61833,119.8457c-1.39592,0.04068 -2.72122,0.62301 -3.69531,1.6237l-7.60059,7.60058c-1.35945,1.35887 -1.89055,3.33984 -1.3932,5.19652c0.49735,1.85668 1.94758,3.30691 3.80426,3.80426c1.85668,0.49735 3.83765,-0.03375 5.19652,-1.3932l7.60058,-7.60059c1.59345,-1.54573 2.0728,-3.91199 1.20653,-5.956c-0.86626,-2.04401 -2.89991,-3.34525 -5.1188,-3.27528zM125.2137,119.8457c-2.18814,0.00054 -4.1576,1.32735 -4.98005,3.35505c-0.82245,2.02769 -0.33375,4.35156 1.23575,5.87624l7.60058,7.60059c2.10078,2.10078 5.50681,2.10078 7.60759,0c2.10078,-2.10078 2.10078,-5.50681 0,-7.60759l-7.60059,-7.60058c-1.01508,-1.04157 -2.40889,-1.62737 -3.86328,-1.6237zM85.91601,136.08968c-2.96578,0.04633 -5.33356,2.48614 -5.29101,5.45198v10.75c-0.02741,1.93842 0.99102,3.74144 2.66532,4.71865c1.6743,0.97721 3.74507,0.97721 5.41937,0c1.6743,-0.97721 2.69273,-2.78023 2.66532,-4.71865v-10.75c0.02085,-1.45347 -0.54782,-2.85342 -1.57635,-3.88062c-1.02852,-1.0272 -2.4292,-1.59408 -3.88264,-1.57136z"></path></g></g></svg>